<?xml version="1.0" standalone="no"?>
<!DOCTYPE svg PUBLIC "-//W3C//DTD SVG 20010904//EN"
 "http://www.w3.org/TR/2001/REC-SVG-20010904/DTD/svg10.dtd">
<svg version="1.0" xmlns="http://www.w3.org/2000/svg"
 width="287.000000pt" height="450.000000pt" viewBox="0 0 287.000000 450.000000"
 preserveAspectRatio="xMidYMid meet">

<g transform="translate(0.000000,450.000000) scale(0.100000,-0.100000)"
fill="#000000" stroke="none">
<path d="M532 4481 c-8 -4 -13 -11 -12 -15 0 -4 -13 -19 -30 -34 -20 -18 -30
-36 -30 -55 0 -15 -4 -26 -9 -23 -9 6 -25 -31 -29 -72 -1 -7 -6 -11 -11 -8 -6
4 -52 -65 -70 -108 -2 -5 -12 -17 -23 -28 -10 -10 -16 -23 -12 -29 4 -7 -6
-10 -27 -9 -71 4 -74 -2 -28 -55 49 -55 66 -61 90 -31 12 15 26 23 35 19 22
-8 125 7 119 18 -4 5 -2 9 3 9 9 0 22 26 84 160 52 112 58 128 58 158 0 36
-10 49 -51 71 -19 11 -33 24 -31 30 2 13 -8 14 -26 2z"/>
<path d="M365 3943 c-28 -27 -16 -34 58 -32 57 1 80 -3 103 -17 25 -16 27 -17
15 -1 -38 48 -147 80 -176 50z"/>
<path d="M246 3931 c-12 -13 -14 -21 -6 -26 6 -4 8 -15 5 -26 -4 -11 -2 -19 5
-19 6 0 13 14 17 31 5 26 9 30 30 24 20 -5 24 -2 21 12 -5 26 -50 28 -72 4z"/>
<path d="M439 3877 c-15 -32 7 -82 36 -82 30 0 28 72 -2 92 -21 14 -23 13 -34
-10z"/>
<path d="M40 3654 c0 -17 36 -27 85 -25 66 2 74 -4 68 -52 -6 -50 -33 -168
-42 -182 -8 -14 -30 -119 -25 -124 2 -2 15 1 28 7 39 17 116 121 181 243 47
87 66 115 85 119 14 3 20 9 14 12 -12 8 -230 2 -244 -7 -14 -8 -52 4 -45 15 3
5 -20 8 -50 7 -36 -1 -55 -5 -55 -13z"/>
<path d="M431 3629 c-12 -10 -24 -24 -25 -31 -1 -7 -7 -23 -14 -35 -17 -32
-15 -34 16 -16 27 15 29 15 55 -11 15 -15 27 -30 27 -35 0 -4 11 -14 25 -21
14 -8 32 -32 42 -59 22 -59 43 -99 43 -84 0 7 6 10 14 7 9 -4 24 9 40 33 20
31 25 47 20 71 -9 44 -86 118 -145 139 -34 12 -45 21 -42 33 7 25 -29 31 -56
9z"/>
<path d="M120 3220 l-35 -7 43 -2 c23 0 42 4 42 9 0 6 -3 9 -7 9 -5 -1 -24 -5
-43 -9z"/>
<path d="M1195 1815 l-30 -25 48 -45 47 -46 42 23 c23 13 43 28 45 34 4 13
-88 84 -108 84 -8 0 -27 -11 -44 -25z"/>
<path d="M878 1663 c-16 -8 -28 -22 -28 -32 0 -44 60 -215 93 -265 39 -59 60
-77 160 -142 l69 -44 181 -10 c100 -6 214 -15 252 -20 39 -6 151 -13 250 -16
157 -6 184 -5 213 10 17 9 32 20 32 24 0 4 -45 5 -99 4 -112 -4 -290 18 -394
50 -56 16 -67 23 -61 37 16 37 9 53 -28 68 -21 8 -80 38 -130 65 -222 120
-288 151 -327 154 -22 1 -45 5 -51 9 -5 3 -10 1 -10 -4 0 -6 -3 -11 -8 -11
-10 0 -42 91 -42 119 0 25 -30 27 -72 4z m237 -228 c43 -25 129 -71 190 -101
60 -31 117 -63 125 -72 13 -13 13 -14 0 -10 -179 63 -415 179 -423 208 -8 31
20 25 108 -25z"/>
<path d="M1253 1575 c-40 -17 -42 -31 -5 -40 15 -3 104 -44 197 -91 121 -60
191 -89 243 -99 88 -18 196 -19 243 -3 34 11 93 47 87 53 -2 2 -23 0 -48 -5
-57 -11 -194 4 -285 31 -68 21 -156 61 -288 132 -75 40 -95 43 -144 22z"/>
<path d="M156 1280 c-10 -22 -22 -40 -28 -40 -6 0 0 -9 13 -20 13 -10 18 -19
12 -20 -22 0 -16 -64 7 -78 11 -7 20 -22 20 -33 0 -12 14 -37 30 -56 17 -18
30 -40 30 -48 0 -8 4 -15 9 -15 4 0 35 -26 68 -57 113 -110 166 -148 292 -212
11 -6 31 -16 42 -22 12 -6 37 -20 57 -31 19 -10 41 -17 49 -14 8 3 12 2 9 -3
-3 -4 6 -14 19 -21 32 -17 62 -60 42 -60 -10 0 -16 -17 -20 -54 -3 -29 -10
-63 -16 -75 -6 -11 -15 -30 -21 -41 -5 -11 -10 -26 -10 -34 0 -8 -26 -45 -57
-82 -32 -38 -52 -65 -45 -60 7 4 12 2 12 -4 0 -6 -8 -9 -17 -6 -10 3 -25 1
-33 -4 -8 -5 -10 -10 -5 -10 16 0 -18 -20 -35 -20 -13 0 -13 1 0 11 11 8 9 9
-10 3 -14 -4 -26 -10 -28 -14 -1 -4 -33 -5 -70 -2 -120 11 -275 7 -316 -7 -21
-7 -34 -16 -27 -20 6 -4 9 -17 6 -29 -5 -26 1 -27 47 -8 22 10 39 11 49 5 13
-8 6 -13 -14 -10 -5 1 -6 -2 -4 -6 3 -5 40 -6 84 -3 124 9 289 -25 315 -64 5
-8 8 -7 8 1 0 7 3 12 8 11 11 -2 93 21 134 39 56 24 74 47 60 79 -15 32 -15
92 0 135 12 34 64 116 99 154 10 11 25 38 35 60 22 56 42 75 76 75 34 0 211
-59 216 -72 2 -4 10 -8 17 -8 7 0 26 -7 42 -14 15 -8 36 -18 47 -21 14 -4 16
-8 7 -19 -8 -10 -8 -16 3 -25 43 -36 63 -222 29 -271 -25 -37 -32 -40 -106
-40 -49 0 -66 -3 -61 -12 5 -8 -4 -9 -34 -5 -37 6 -41 5 -44 -15 -2 -13 -11
-24 -23 -27 -21 -4 -37 -20 -29 -32 4 -8 284 -12 284 -4 0 2 -28 9 -62 16
l-62 12 37 13 c21 7 43 11 50 9 7 -2 34 -6 61 -9 41 -5 47 -4 36 9 -9 11 -6
25 16 67 22 43 27 65 26 118 -2 97 -6 130 -16 130 -4 0 -6 9 -3 19 3 12 -4 28
-17 40 -20 19 -22 29 -18 79 6 73 14 88 60 107 20 9 45 21 54 26 10 5 28 9 40
9 13 0 37 9 53 20 17 11 36 20 44 20 12 0 51 16 229 96 29 13 58 24 65 24 7 0
18 5 24 11 6 6 47 21 92 34 105 31 129 44 79 45 -50 0 -186 -19 -227 -32 -48
-15 -252 -57 -341 -69 -93 -13 -255 -5 -335 17 -33 9 -91 22 -129 30 -38 8
-73 19 -77 25 -4 7 -21 12 -38 11 -17 0 -31 3 -31 8 0 5 -19 14 -42 20 -104
27 -156 46 -168 61 -3 4 -35 17 -72 29 -37 12 -65 26 -62 31 3 5 -2 9 -10 9
-26 0 -30 1 -58 22 -16 11 -28 17 -28 13 0 -3 -13 1 -30 10 -16 9 -30 20 -30
25 0 6 -7 10 -15 10 -8 0 -15 5 -15 11 0 5 -4 8 -9 4 -5 -3 -12 -1 -16 5 -3 6
-23 19 -43 30 -20 10 -51 33 -69 49 -18 17 -38 31 -46 31 -8 0 -22 11 -31 25
-9 14 -23 25 -31 25 -8 0 -15 5 -15 10 0 25 -28 6 -44 -30z"/>
<path d="M2420 1009 c-47 -10 -98 -18 -115 -19 -20 0 -26 -3 -17 -8 14 -9 133
10 204 32 59 19 30 17 -72 -5z"/>
<path d="M2250 970 c0 -5 5 -10 10 -10 6 0 10 5 10 10 0 6 -4 10 -10 10 -5 0
-10 -4 -10 -10z"/>
<path d="M158 63 c7 -3 16 -2 19 1 4 3 -2 6 -13 5 -11 0 -14 -3 -6 -6z"/>
<path d="M255 40 c3 -5 15 -10 26 -10 11 0 22 -7 25 -15 5 -12 24 -15 93 -14
l86 1 -90 14 c-49 8 -94 19 -99 24 -13 13 -49 13 -41 0z"/>
</g>
</svg>
